<svg width="24" height="24" viewBox="0 0 24 24" fill="none" xmlns="http://www.w3.org/2000/svg">
<path fill-rule="evenodd" clip-rule="evenodd" d="M2.5 0C2.22386 0 2 0.223858 2 0.5V1.5C2 1.77614 2.22386 2 2.5 2H6.5C6.77614 2 7 1.77614 7 1.5V0.5C7 0.223858 6.77614 0 6.5 0H2.5ZM3 4V12H11V4H3ZM2.5 3C2.22386 3 2 3.22386 2 3.5V12.5C2 12.7761 2.22386 13 2.5 13H11.5C11.7761 13 12 12.7761 12 12.5V3.5C12 3.22386 11.7761 3 11.5 3H2.5ZM3 15V23H11V15H3ZM2.5 14C2.22386 14 2 14.2239 2 14.5V23.5C2 23.7761 2.22386 24 2.5 24H11.5C11.7761 24 12 23.7761 12 23.5V14.5C12 14.2239 11.7761 14 11.5 14H2.5ZM14 12V4H22V12H14ZM13 3.5C13 3.22386 13.2239 3 13.5 3H22.5C22.7761 3 23 3.22386 23 3.5V12.5C23 12.7761 22.7761 13 22.5 13H13.5C13.2239 13 13 12.7761 13 12.5V3.5ZM14 15V23H22V15H14ZM13.5 14C13.2239 14 13 14.2239 13 14.5V23.5C13 23.7761 13.2239 24 13.5 24H22.5C22.7761 24 23 23.7761 23 23.5V14.5C23 14.2239 22.7761 14 22.5 14H13.5ZM4.18321 9.99999H9.82324C9.85242 10.0003 9.8812 9.99264 9.90673 9.97743L9.91445 9.97254C9.91748 9.97052 9.9204 9.9684 9.92329 9.96619C9.92816 9.96242 9.93284 9.95838 9.93732 9.95408C9.94958 9.9423 9.96022 9.92861 9.96884 9.9134C9.98496 9.88715 9.99517 9.85721 9.99867 9.82598C9.99953 9.81815 9.99996 9.81029 10 9.80244C10 9.77898 9.99625 9.75564 9.98875 9.73348L8.74861 6.12456C8.73743 6.09257 8.71846 6.06437 8.69375 6.04287C8.66901 6.02135 8.6394 6.00731 8.60792 6.00217C8.5764 5.99705 8.54422 6.00102 8.51465 6.01369C8.48508 6.02635 8.45918 6.04725 8.43963 6.07423L6.88897 8.18496L6.07632 7.07553C6.03777 7.03172 5.98475 7.00578 5.9286 7.00323C5.9009 7.00349 5.87367 7.0108 5.84911 7.02454C5.82454 7.0383 5.80337 7.05809 5.78732 7.08231L4.03494 9.68993C4.01481 9.71861 4.00284 9.75292 4.00042 9.78874C3.99963 9.80094 3.99996 9.81315 4.00136 9.82518C4.00403 9.84845 4.01081 9.87107 4.02145 9.89181C4.03692 9.92374 4.06008 9.95062 4.08853 9.96965C4.11699 9.98868 4.1497 9.99917 4.18321 9.99999ZM20.8232 9.99999H15.1832C15.1497 9.99917 15.117 9.98868 15.0885 9.96965C15.0601 9.95062 15.0369 9.92374 15.0215 9.89181C15.0108 9.87107 15.004 9.84845 15.0014 9.82518C15 9.81315 14.9996 9.80094 15.0004 9.78874C15.0028 9.75292 15.0148 9.71861 15.0349 9.68993L16.7873 7.08231C16.8034 7.05809 16.8245 7.0383 16.8491 7.02454C16.8737 7.0108 16.9009 7.00349 16.9286 7.00323C16.9847 7.00578 17.0378 7.03172 17.0763 7.07553L17.889 8.18496L19.4396 6.07423C19.4592 6.04725 19.4851 6.02635 19.5147 6.01369C19.5442 6.00102 19.5764 5.99705 19.6079 6.00217C19.6394 6.00731 19.669 6.02135 19.6938 6.04287C19.7185 6.06437 19.7374 6.09257 19.7486 6.12456L20.9887 9.73348C20.9962 9.75564 21 9.77898 21 9.80244C21 9.81029 20.9995 9.81815 20.9987 9.82598C20.9952 9.85721 20.985 9.88715 20.9688 9.9134C20.9602 9.92861 20.9496 9.9423 20.9373 9.95408L20.93 9.96072L20.9233 9.96619C20.9204 9.9684 20.9175 9.97052 20.9145 9.97254L20.9067 9.97743C20.8812 9.99264 20.8524 10.0003 20.8232 9.99999ZM15.1832 21H20.8232C20.8524 21.0003 20.8812 20.9926 20.9067 20.9774L20.9145 20.9725L20.9186 20.9697L20.9233 20.9662C20.9282 20.9624 20.9328 20.9584 20.9373 20.9541C20.9496 20.9423 20.9602 20.9286 20.9688 20.9134C20.985 20.8871 20.9952 20.8572 20.9987 20.826L20.9994 20.8183L20.9998 20.811L21 20.8024C21 20.779 20.9962 20.7556 20.9887 20.7335L19.7486 17.1246C19.7374 17.0926 19.7185 17.0644 19.6938 17.0429C19.669 17.0213 19.6394 17.0073 19.6079 17.0022C19.5764 16.9971 19.5442 17.001 19.5147 17.0137C19.4851 17.0264 19.4592 17.0472 19.4396 17.0742L17.889 19.185L17.0763 18.0755C17.0378 18.0317 16.9847 18.0058 16.9286 18.0032C16.9009 18.0035 16.8737 18.0108 16.8491 18.0245C16.8245 18.0383 16.8034 18.0581 16.7873 18.0823L15.0349 20.6899C15.0148 20.7186 15.0028 20.7529 15.0004 20.7887C14.9996 20.8009 15 20.8131 15.0014 20.8252C15.004 20.8484 15.0108 20.8711 15.0215 20.8918C15.0369 20.9237 15.0601 20.9506 15.0885 20.9696C15.117 20.9887 15.1497 20.9992 15.1832 21ZM9.82324 21H4.18321C4.1497 20.9992 4.11699 20.9887 4.08853 20.9696C4.06008 20.9506 4.03692 20.9237 4.02145 20.8918C4.01081 20.8711 4.00403 20.8484 4.00136 20.8252C3.99996 20.8131 3.99963 20.8009 4.00042 20.7887C4.00284 20.7529 4.01481 20.7186 4.03494 20.6899L5.78732 18.0823C5.80337 18.0581 5.82454 18.0383 5.84911 18.0245C5.87367 18.0108 5.9009 18.0035 5.9286 18.0032C5.98475 18.0058 6.03777 18.0317 6.07632 18.0755L6.88897 19.185L8.43963 17.0742C8.45918 17.0472 8.48508 17.0264 8.51465 17.0137C8.54422 17.001 8.5764 16.9971 8.60792 17.0022C8.6394 17.0073 8.66901 17.0213 8.69375 17.0429C8.71846 17.0644 8.73743 17.0926 8.74861 17.1246L9.98875 20.7335C9.99625 20.7556 10 20.779 10 20.8024C9.99996 20.8103 9.99953 20.8181 9.99867 20.826C9.99517 20.8572 9.98496 20.8871 9.96884 20.9134C9.96022 20.9286 9.94958 20.9423 9.93732 20.9541C9.93284 20.9584 9.92816 20.9624 9.92329 20.9662L9.92173 20.9674L9.91445 20.9725L9.90673 20.9774C9.8812 20.9926 9.85242 21.0003 9.82324 21ZM8.6 0.6V1.4H12.4V0.6H8.6ZM8.5 0C8.22386 0 8 0.223858 8 0.5V1.5C8 1.77614 8.22386 2 8.5 2H12.5C12.7761 2 13 1.77614 13 1.5V0.5C13 0.223858 12.7761 0 12.5 0H8.5ZM14.6 1.4V0.6H18.4V1.4H14.6ZM14 0.5C14 0.223858 14.2239 0 14.5 0H18.5C18.7761 0 19 0.223858 19 0.5V1.5C19 1.77614 18.7761 2 18.5 2H14.5C14.2239 2 14 1.77614 14 1.5V0.5Z" fill="#9747FF"/>
</svg>
