<svg width="24" height="24" viewBox="0 0 24 24" fill="none" xmlns="http://www.w3.org/2000/svg">
<path fill-rule="evenodd" clip-rule="evenodd" d="M1 10V2H7V10H1ZM0 1.6C0 1.26863 0.268629 1 0.6 1H7.4C7.73137 1 8 1.26863 8 1.6V10.4C8 10.7314 7.73137 11 7.4 11H0.6C0.268629 11 0 10.7314 0 10.4V1.6ZM23 21V13H17V21H23ZM24 12.6C24 12.2686 23.7314 12 23.4 12H16.6C16.2686 12 16 12.2686 16 12.6V21.4C16 21.7314 16.2686 22 16.6 22H23.4C23.7314 22 24 21.7314 24 21.4V12.6ZM10 2V10H23V2H10ZM9.6 1C9.26863 1 9 1.26863 9 1.6V10.4C9 10.7314 9.26863 11 9.6 11H23.4C23.7314 11 24 10.7314 24 10.4V1.6C24 1.26863 23.7314 1 23.4 1H9.6ZM14 21V13H1V21H14ZM15 12.6C15 12.2686 14.7314 12 14.4 12H0.6C0.268629 12 0 12.2686 0 12.6V21.4C0 21.7314 0.268629 22 0.6 22H14.4C14.7314 22 15 21.7314 15 21.4V12.6ZM19.7938 7.99999H13.2137C13.1747 7.99917 13.1365 7.98868 13.1033 7.96965C13.0701 7.95062 13.0431 7.92374 13.025 7.89181C13.0126 7.87107 13.0047 7.84845 13.0016 7.82518C12.9999 7.81315 12.9996 7.80094 13.0005 7.78874C13.0033 7.75292 13.0173 7.71861 13.0408 7.68993L15.0852 5.08231C15.1039 5.05809 15.1286 5.0383 15.1573 5.02454C15.1859 5.0108 15.2177 5.00349 15.25 5.00323C15.3155 5.00578 15.3774 5.03172 15.4224 5.07553L16.3705 6.18496L18.1796 4.07423C18.2024 4.04725 18.2326 4.02635 18.2671 4.01369C18.3016 4.00102 18.3391 3.99705 18.3759 4.00217C18.4126 4.00731 18.4472 4.02135 18.476 4.04287C18.5049 4.06437 18.527 4.09257 18.54 4.12456L19.9869 7.73348C19.9956 7.75564 20 7.77898 20 7.80244C20 7.81029 19.9995 7.81815 19.9984 7.82598C19.9944 7.85721 19.9825 7.88715 19.9636 7.9134C19.9536 7.92861 19.9412 7.9423 19.9269 7.95408L19.9183 7.96072L19.9105 7.96619C19.9071 7.9684 19.9037 7.97052 19.9002 7.97254L19.8912 7.97743C19.8614 7.99264 19.8278 8.00034 19.7938 7.99999ZM4.21374 19H10.7938C10.8278 19.0003 10.8614 18.9926 10.8912 18.9774L10.9002 18.9725C10.9037 18.9705 10.9071 18.9684 10.9105 18.9662L10.9183 18.9607L10.9269 18.9541C10.9412 18.9423 10.9536 18.9286 10.9636 18.9134C10.9825 18.8871 10.9944 18.8572 10.9984 18.826C10.9995 18.8181 11 18.8103 11 18.8024C11 18.779 10.9956 18.7556 10.9869 18.7335L9.54005 15.1246C9.527 15.0926 9.50487 15.0644 9.47605 15.0429C9.44718 15.0213 9.41264 15.0073 9.3759 15.0022C9.33913 14.9971 9.30159 15.001 9.26709 15.0137C9.23259 15.0264 9.20238 15.0472 9.17957 15.0742L7.37046 17.185L6.42238 16.0755C6.3774 16.0317 6.31554 16.0058 6.25003 16.0032C6.21771 16.0035 6.18594 16.0108 6.15729 16.0245C6.12863 16.0383 6.10394 16.0581 6.08521 16.0823L4.04076 18.6899C4.01728 18.7186 4.00331 18.7529 4.00049 18.7887C3.99957 18.8009 3.99995 18.8131 4.00159 18.8252C4.0047 18.8484 4.01261 18.8711 4.02503 18.8918C4.04308 18.9237 4.07009 18.9506 4.10329 18.9696C4.13649 18.9887 4.17465 18.9992 4.21374 19ZM5.88216 6.99999H2.12214C2.0998 6.99938 2.07799 6.99151 2.05902 6.97724C2.04005 6.96297 2.02462 6.94281 2.0143 6.91886C2.00721 6.9033 2.00269 6.88634 2.00091 6.86889C1.99997 6.85986 1.99975 6.85071 2.00028 6.84156C2.00189 6.81469 2.00988 6.78896 2.02329 6.76744L3.19155 4.81174C3.20225 4.79357 3.21636 4.77872 3.23274 4.76841C3.24911 4.7581 3.26726 4.75262 3.28573 4.75242C3.32317 4.75434 3.35851 4.77379 3.38421 4.80665L3.92598 5.63872L4.95975 4.05567C4.97279 4.03544 4.99005 4.01977 5.00977 4.01027C5.02948 4.00076 5.05093 3.99779 5.07195 4.00163C5.09293 4.00548 5.11268 4.01601 5.12917 4.03215C5.14564 4.04828 5.15829 4.06943 5.16574 4.09342L5.9925 6.80011C5.9975 6.81673 6.00002 6.83424 6 6.85183C5.99998 6.85772 5.99969 6.86361 5.99911 6.86948C5.99678 6.89291 5.98997 6.91536 5.97923 6.93505C5.97348 6.94645 5.96639 6.95673 5.95821 6.96556L5.95334 6.97054L5.94886 6.97464L5.94297 6.9794L5.93782 6.98307C5.9208 6.99448 5.90161 7.00025 5.88216 6.99999ZM18.1221 18H21.8822C21.9016 18.0003 21.9208 17.9945 21.9378 17.9831L21.943 17.9794L21.9489 17.9746L21.9533 17.9705L21.9582 17.9656C21.9664 17.9567 21.9735 17.9465 21.9792 17.935C21.99 17.9154 21.9968 17.8929 21.9991 17.8695C21.9997 17.8636 22 17.8577 22 17.8518C22 17.8342 21.9975 17.8167 21.9925 17.8001L21.1657 15.0934C21.1583 15.0694 21.1456 15.0483 21.1292 15.0321C21.1127 15.016 21.0929 15.0055 21.0719 15.0016C21.0509 14.9978 21.0295 15.0008 21.0098 15.0103C20.99 15.0198 20.9728 15.0354 20.9598 15.0557L19.926 16.6387L19.3842 15.8066C19.3585 15.7738 19.3232 15.7543 19.2857 15.7524C19.2673 15.7526 19.2491 15.7581 19.2327 15.7684C19.2164 15.7787 19.2022 15.7936 19.1915 15.8117L18.0233 17.7674C18.0099 17.789 18.0019 17.8147 18.0003 17.8416C18 17.8465 17.9999 17.8514 18.0001 17.8563C18.0002 17.8605 18.0005 17.8647 18.0009 17.8689C18.0027 17.8863 18.0072 17.9033 18.0143 17.9189C18.0246 17.9428 18.0401 17.963 18.059 17.9772C18.078 17.9915 18.0998 17.9994 18.1221 18Z" fill="#9747FF"/>
</svg>
