<svg width="24" height="24" viewBox="0 0 24 24" fill="none" xmlns="http://www.w3.org/2000/svg">
<path fill-rule="evenodd" clip-rule="evenodd" d="M1 7V1H10V7H1ZM0 0.6C0 0.268629 0.268629 0 0.6 0H10.4C10.7314 0 11 0.268629 11 0.6V7.4C11 7.73137 10.7314 8 10.4 8H0.6C0.268629 8 0 7.73137 0 7.4V0.6ZM13 17V23H22V17H13ZM12 23.4C12 23.7314 12.2686 24 12.6 24H22.4C22.7314 24 23 23.7314 23 23.4V16.6C23 16.2686 22.7314 16 22.4 16H12.6C12.2686 16 12 16.2686 12 16.6V23.4ZM1 10V23H10V10H1ZM0.6 9C0.268629 9 0 9.26863 0 9.6V23.4C0 23.7314 0.268629 24 0.6 24H10.4C10.7314 24 11 23.7314 11 23.4V9.6C11 9.26863 10.7314 9 10.4 9H0.6ZM13 1V14H22V1H13ZM12 14.4C12 14.7314 12.2686 15 12.6 15H22.4C22.7314 15 23 14.7314 23 14.4V0.6C23 0.268629 22.7314 0 22.4 0H12.6C12.2686 0 12 0.268629 12 0.6V14.4ZM7.8527 5.99999H3.15267C3.12475 5.99917 3.09749 5.98868 3.07378 5.96965C3.05006 5.95062 3.03077 5.92374 3.01788 5.89181C3.00901 5.87107 3.00336 5.84845 3.00113 5.82518C2.99996 5.81315 2.99969 5.80094 3.00035 5.78874C3.00237 5.75292 3.01235 5.71861 3.02912 5.68993L4.48944 3.08231C4.50281 3.05809 4.52045 3.0383 4.54092 3.02454C4.56139 3.0108 4.58408 3.00349 4.60716 3.00323C4.65396 3.00578 4.69814 3.03172 4.73027 3.07553L5.40747 4.18496L6.69969 2.07423C6.71598 2.04725 6.73756 2.02635 6.76221 2.01369C6.78685 2.00102 6.81366 1.99705 6.83993 2.00217C6.86617 2.00731 6.89084 2.02135 6.91146 2.04287C6.93205 2.06437 6.94786 2.09257 6.95718 2.12456L7.99062 5.73348C7.99687 5.75564 8.00003 5.77898 8 5.80244C7.99997 5.81029 7.99961 5.81815 7.99889 5.82598C7.99597 5.85721 7.98747 5.88715 7.97403 5.9134C7.96685 5.92861 7.95798 5.9423 7.94776 5.95408L7.94167 5.96072L7.93607 5.96619C7.93367 5.9684 7.93123 5.97052 7.92871 5.97254L7.92228 5.97743C7.901 5.99264 7.87701 6.00034 7.8527 5.99999ZM15.1527 22H19.8527C19.877 22.0003 19.901 21.9926 19.9223 21.9774L19.9287 21.9725C19.9312 21.9705 19.9337 21.9684 19.9361 21.9662L19.9417 21.9607L19.9478 21.9541C19.958 21.9423 19.9668 21.9286 19.974 21.9134C19.9875 21.8871 19.996 21.8572 19.9989 21.826C19.9996 21.8181 20 21.8103 20 21.8024C20 21.779 19.9969 21.7556 19.9906 21.7335L18.9572 18.1246C18.9479 18.0926 18.9321 18.0644 18.9115 18.0429C18.8908 18.0213 18.8662 18.0073 18.8399 18.0022C18.8137 17.9971 18.7869 18.001 18.7622 18.0137C18.7376 18.0264 18.716 18.0472 18.6997 18.0742L17.4075 20.185L16.7303 19.0755C16.6981 19.0317 16.654 19.0058 16.6072 19.0032C16.5841 19.0035 16.5614 19.0108 16.5409 19.0245C16.5205 19.0383 16.5028 19.0581 16.4894 19.0823L15.0291 21.6899C15.0123 21.7186 15.0024 21.7529 15.0004 21.7887C14.9997 21.8009 15 21.8131 15.0011 21.8252C15.0034 21.8484 15.009 21.8711 15.0179 21.8918C15.0308 21.9237 15.0501 21.9506 15.0738 21.9696C15.0975 21.9887 15.1248 21.9992 15.1527 22ZM20.7938 9.99999H14.2137C14.1747 9.99896 14.1365 9.98585 14.1033 9.96206C14.0701 9.93828 14.0431 9.90468 14.025 9.86477C14.0126 9.83884 14.0047 9.81056 14.0016 9.78148C13.9999 9.76644 13.9996 9.75118 14.0005 9.73592C14.0033 9.69115 14.0173 9.64827 14.0408 9.61241L16.0852 6.35289C16.1039 6.32262 16.1286 6.29787 16.1573 6.28068C16.1859 6.2635 16.2177 6.25436 16.25 6.25404C16.3155 6.25723 16.3774 6.28965 16.4224 6.34441L17.3705 7.7312L19.1796 5.09278C19.2024 5.05906 19.2326 5.03294 19.2671 5.01711C19.3016 5.00127 19.3391 4.99632 19.3759 5.00272C19.4126 5.00914 19.4472 5.02668 19.476 5.05358C19.5049 5.08047 19.527 5.11571 19.54 5.1557L20.9869 9.66685C20.9956 9.69455 21 9.72373 21 9.75305C21 9.76286 20.9995 9.77268 20.9984 9.78247C20.9944 9.82152 20.9825 9.85893 20.9636 9.89175C20.9536 9.91076 20.9412 9.92788 20.9269 9.9426L20.9183 9.9509L20.9105 9.95774C20.9071 9.9605 20.9037 9.96315 20.9002 9.96567L20.8912 9.97179C20.8614 9.9908 20.8278 10.0004 20.7938 9.99999ZM5.50001 12.9086C5.83138 12.9086 6.10001 13.1773 6.10001 13.5086V15.9H8.49146C8.82283 15.9 9.09146 16.1687 9.09146 16.5C9.09146 16.8314 8.82283 17.1 8.49146 17.1H6.10001V19.4915C6.10001 19.8228 5.83138 20.0915 5.50001 20.0915C5.16863 20.0915 4.90001 19.8228 4.90001 19.4915V17.1H2.50863C2.17726 17.1 1.90863 16.8314 1.90863 16.5C1.90863 16.1687 2.17726 15.9 2.50863 15.9H4.90001V13.5086C4.90001 13.1773 5.16863 12.9086 5.50001 12.9086Z" fill="#9747FF"/>
</svg>
